<?xml version="1.0" encoding="iso-8859-1"?>
<!-- Generator: Adobe Illustrator 19.0.0, SVG Export Plug-In . SVG Version: 6.00 Build 0)  -->
<svg version="1.1" id="Layer_1" xmlns="http://www.w3.org/2000/svg" xmlns:xlink="http://www.w3.org/1999/xlink" x="0px" y="0px"
	 viewBox="0 0 512 512" style="enable-background:new 0 0 512 512;" xml:space="preserve">
<path style="fill:#CFCDD6;" d="M234.483,19.741H60.42c-4.587,0-8.306,3.719-8.306,8.306v25.259c0,4.587,3.719,8.306,8.306,8.306
	s8.306-3.719,8.306-8.306h157.452c0,4.587,3.719,8.306,8.305,8.306s8.306-3.719,8.306-8.306V28.047
	C242.789,23.46,239.07,19.741,234.483,19.741z"/>
<path style="fill:#DEE1E7;" d="M147.452,19.741H60.42c-4.587,0-8.306,3.719-8.306,8.306v25.259c0,4.587,3.719,8.306,8.306,8.306
	s8.306-3.719,8.306-8.306h78.726V19.741z"/>
<path style="fill:#BC2A46;" d="M270.544,117.148c-1.571-1.701-3.783-2.669-6.1-2.669H30.459c-2.317,0-4.527,0.968-6.1,2.669
	c-1.571,1.702-2.362,3.982-2.179,6.291l28.537,361.168c0.341,4.32,3.946,7.651,8.28,7.651H235.91c4.333,0,7.938-3.331,8.28-7.651
	l28.537-361.168C272.907,121.13,272.116,118.85,270.544,117.148z"/>
<path style="fill:#D62D46;" d="M147.452,114.479H30.459c-2.317,0-4.527,0.968-6.1,2.669c-1.571,1.702-2.362,3.982-2.179,6.291
	l28.537,361.168c0.341,4.32,3.946,7.651,8.28,7.651h88.457V114.479H147.452z"/>
<path style="fill:#0E4151;" d="M294.842,132.401l-9.564-78.319c-0.508-4.167-4.045-7.299-8.243-7.299H17.869
	c-4.198,0-7.735,3.132-8.245,7.299l-9.564,78.319c-0.288,2.361,0.45,4.732,2.025,6.513c1.577,1.781,3.84,2.8,6.219,2.8h278.292
	c2.378,0,4.642-1.019,6.218-2.8C294.393,137.133,295.13,134.762,294.842,132.401z"/>
<path style="fill:#144F66;" d="M147.452,46.784H17.869c-4.198,0-7.735,3.132-8.245,7.299l-9.564,78.319
	c-0.288,2.361,0.45,4.732,2.025,6.513c1.577,1.781,3.84,2.799,6.219,2.799h139.146V46.784z"/>
<path style="fill:#DBAD75;" d="M382.622,262.168H226.105c-59.127,0-107.231,48.103-107.231,107.232h370.979
	C489.852,310.272,441.749,262.168,382.622,262.168z"/>
<path style="fill:#EABD81;" d="M304.364,262.168h-78.259c-59.127,0-107.231,48.103-107.231,107.232h185.49V262.168z"/>
<path style="fill:#DBAD75;" d="M118.874,431.538c0,33.481,27.239,60.721,60.72,60.721h249.538c33.481,0,60.72-27.239,60.72-60.721
	H118.874z"/>
<path style="fill:#EABD81;" d="M118.874,431.538c0,33.481,27.239,60.721,60.72,60.721h124.77v-60.721H118.874z"/>
<path style="fill:#885F3E;" d="M469.361,355.925H139.366c-23.511,0-42.639,19.128-42.639,42.64s19.128,42.639,42.639,42.639h329.995
	c23.511,0,42.639-19.128,42.639-42.639S492.873,355.925,469.361,355.925z"/>
<path style="fill:#A67C52;" d="M304.364,355.925H139.366c-23.511,0-42.639,19.128-42.639,42.64s19.128,42.639,42.639,42.639h164.997
	v-85.28H304.364z"/>
<g>
</g>
<g>
</g>
<g>
</g>
<g>
</g>
<g>
</g>
<g>
</g>
<g>
</g>
<g>
</g>
<g>
</g>
<g>
</g>
<g>
</g>
<g>
</g>
<g>
</g>
<g>
</g>
<g>
</g>
</svg>
